<svg width="80.000000" height="80.000000" viewBox="0 0 80 80" fill="none" xmlns="http://www.w3.org/2000/svg" xmlns:xlink="http://www.w3.org/1999/xlink">
	<desc>
			Created with Pixso.
	</desc>
	<defs/>
	<path id="path" d="M40 12.33C38.15 12.33 36.66 10.84 36.66 9L36.66 2.33C36.66 0.49 38.15 -1 40 -1C41.84 -1 43.33 0.49 43.33 2.33L43.33 9C43.33 10.84 41.84 12.33 40 12.33Z" fill="#FFFFFF" fill-opacity="1.000000" fill-rule="nonzero"/>
	<path id="path" d="M58.85 20.14C57.55 18.84 57.55 16.73 58.85 15.42L63.57 10.71C64.87 9.41 66.98 9.41 68.28 10.71C69.58 12.01 69.58 14.12 68.28 15.42L63.57 20.14C62.26 21.44 60.15 21.44 58.85 20.14Z" fill="#FFFFFF" fill-opacity="1.000000" fill-rule="nonzero"/>
	<path id="path" d="M70 35.66C68.15 35.66 66.66 37.15 66.66 39C66.66 40.84 68.15 42.33 70 42.33L76.66 42.33C78.5 42.33 80 40.84 80 39C80 37.15 78.5 35.66 76.66 35.66L70 35.66Z" fill="#FFFFFF" fill-opacity="1.000000" fill-rule="nonzero"/>
	<path id="path" d="M58.85 57.85C60.15 56.55 62.26 56.55 63.57 57.85L68.28 62.57C69.58 63.87 69.58 65.98 68.28 67.28C66.98 68.58 64.87 68.58 63.57 67.28L58.85 62.57C57.55 61.26 57.55 59.15 58.85 57.85Z" fill="#FFFFFF" fill-opacity="1.000000" fill-rule="nonzero"/>
	<path id="path" d="M40 79C38.15 79 36.66 77.5 36.66 75.66L36.66 69C36.66 67.15 38.15 65.66 40 65.66C41.84 65.66 43.33 67.15 43.33 69L43.33 75.66C43.33 77.5 41.84 79 40 79Z" fill="#FFFFFF" fill-opacity="1.000000" fill-rule="nonzero"/>
	<path id="path" d="M40 59C51.04 59 60 50.04 60 39C60 27.95 51.04 19 40 19C28.95 19 20 27.95 20 39C20 50.04 28.95 59 40 59ZM40 52.33C47.36 52.33 53.33 46.36 53.33 39C53.33 31.63 47.36 25.66 40 25.66C32.63 25.66 26.66 31.63 26.66 39C26.66 46.36 32.63 52.33 40 52.33Z" fill="#FFFFFF" fill-opacity="1.000000" fill-rule="evenodd"/>
	<path id="path" d="M11.71 10.71C13.01 9.41 15.12 9.41 16.42 10.71L21.14 15.42C22.44 16.73 22.44 18.84 21.14 20.14C19.84 21.44 17.73 21.44 16.42 20.14L11.71 15.42C10.41 14.12 10.41 12.01 11.71 10.71Z" fill="#FFFFFF" fill-opacity="1.000000" fill-rule="nonzero"/>
	<path id="path" d="M11.71 67.28C10.41 65.98 10.41 63.87 11.71 62.57L16.42 57.85C17.73 56.55 19.84 56.55 21.14 57.85C22.44 59.15 22.44 61.26 21.14 62.57L16.42 67.28C15.12 68.58 13.01 68.58 11.71 67.28Z" fill="#FFFFFF" fill-opacity="1.000000" fill-rule="nonzero"/>
	<path id="path" d="M0 39C0 37.15 1.49 35.66 3.33 35.66L10 35.66C11.84 35.66 13.33 37.15 13.33 39C13.33 40.84 11.84 42.33 10 42.33L3.33 42.33C1.49 42.33 0 40.84 0 39Z" fill="#FFFFFF" fill-opacity="1.000000" fill-rule="nonzero"/>
</svg>
