<svg width="72.000000" height="72.000000" viewBox="0 0 72 72" fill="none" xmlns="http://www.w3.org/2000/svg" xmlns:xlink="http://www.w3.org/1999/xlink">
	<desc>
			Created with Pixso.
	</desc>
	<defs>
		<clipPath id="clip253_4">
			<rect id="discord-svgrepo-com" width="72.000000" height="72.000000" fill="white" fill-opacity="0"/>
		</clipPath>
	</defs>
	<g clip-path="url(#clip253_4)">
		<path id="path" d="M53.18 21.01C49.97 19.6 46.55 18.58 42.96 18C42.52 18.74 42.01 19.75 41.66 20.55C37.85 20.01 34.08 20.01 30.34 20.55C29.98 19.75 29.46 18.74 29.01 18C25.43 18.58 22 19.61 18.79 21.02C12.33 30.19 10.58 39.14 11.46 47.96C15.74 50.97 19.9 52.8 23.98 53.99C24.99 52.69 25.89 51.3 26.66 49.84C25.19 49.31 23.77 48.66 22.44 47.91C22.79 47.66 23.14 47.4 23.47 47.14C31.62 50.72 40.47 50.72 48.52 47.14C48.85 47.4 49.2 47.66 49.55 47.91C48.21 48.67 46.8 49.32 45.32 49.84C46.09 51.3 46.99 52.69 48 54C52.09 52.8 56.25 50.97 60.53 47.96C61.56 37.74 58.78 28.87 53.18 21.01ZM27.77 42.54C25.33 42.54 23.32 40.39 23.32 37.78C23.32 35.17 25.28 33.02 27.77 33.02C30.26 33.02 32.27 35.17 32.22 37.78C32.23 40.39 30.26 42.54 27.77 42.54ZM44.22 42.54C41.77 42.54 39.77 40.39 39.77 37.78C39.77 35.17 41.73 33.02 44.22 33.02C46.71 33.02 48.71 35.17 48.67 37.78C48.67 40.39 46.71 42.54 44.22 42.54Z" fill="#5865F2" fill-opacity="1.000000" fill-rule="nonzero"/>
	</g>
</svg>
