<svg width="80.000000" height="80.000000" viewBox="0 0 80 80" fill="none" xmlns="http://www.w3.org/2000/svg" xmlns:xlink="http://www.w3.org/1999/xlink">
	<desc>
			Created with Pixso.
	</desc>
	<defs>
		<clipPath id="clip2_23">
			<rect id="svg" width="80.000000" height="79.925995" transform="translate(0.000000 -0.070297)" fill="white" fill-opacity="0"/>
		</clipPath>
	</defs>
	<g clip-path="url(#clip2_23)">
		<path id="path" d="M40 44.88C46.44 44.88 51.66 39.66 51.66 33.23C51.66 26.79 46.44 21.57 40 21.57C33.55 21.57 28.33 26.79 28.33 33.23C28.33 39.66 33.55 44.88 40 44.88ZM40 38.22C42.76 38.22 45 35.99 45 33.23C45 30.47 42.76 28.23 40 28.23C37.23 28.23 35 30.47 35 33.23C35 35.99 37.23 38.22 40 38.22Z" fill="#BEBEBE" fill-opacity="1.000000" fill-rule="evenodd"/>
		<path id="path" d="M57.37 68.32C66.94 62.46 73.33 51.92 73.33 39.89C73.33 21.5 58.4 6.59 40 6.59C21.59 6.59 6.66 21.5 6.66 39.89C6.66 48.15 9.67 55.71 14.66 61.53C15.92 63 17.3 64.36 18.79 65.59C24.55 70.34 31.94 73.19 40 73.19C46.36 73.19 52.31 71.41 57.37 68.32ZM60.5 56.92C64.35 52.3 66.66 46.37 66.66 39.89C66.66 25.17 54.72 13.25 40 13.25C25.27 13.25 13.33 25.17 13.33 39.89C13.33 46.37 15.64 52.3 19.49 56.92C25.15 52.51 32.26 49.88 40 49.88C47.73 49.88 54.84 52.51 60.5 56.92ZM55.54 61.53C51.17 58.39 45.8 56.54 40 56.54C34.19 56.54 28.82 58.39 24.45 61.53C28.56 64.49 33.56 66.3 38.96 66.51C39.31 66.52 39.65 66.53 40 66.53C40.4 66.53 40.8 66.52 41.2 66.5C46.54 66.27 51.47 64.46 55.54 61.53Z" fill="#BEBEBE" fill-opacity="1.000000" fill-rule="evenodd"/>
	</g>
</svg>
