<svg width="57.000000" height="67.000000" viewBox="0 0 57 67" fill="none" xmlns="http://www.w3.org/2000/svg" xmlns:xlink="http://www.w3.org/1999/xlink">
	<desc>
			Created with Pixso.
	</desc>
	<defs/>
	<path id="path" d="M54.07 52.84C55.97 52.86 57.49 55.47 56.23 56.9C55.52 57.6 54.78 58.25 54.02 58.87C53.77 59.07 53.53 59.26 53.29 59.45C41.15 68.74 23.72 68.75 11.54 58.5C-2.55 46.65 -4.36 25.62 7.49 11.54C17.74 -0.65 34.85 -3.65 48.4 3.43C48.67 3.57 49.01 3.75 49.28 3.9C50.13 4.38 50.98 4.9 51.8 5.47C53.28 6.66 52.24 9.49 50.37 9.83C49.75 9.95 49.13 10.09 48.52 10.25C48.28 10.32 48.04 10.39 47.8 10.46C44.06 11.69 40.23 14.03 37.55 17.23C29.85 26.38 31.02 40.05 40.18 47.75C43.37 50.44 47.17 52.04 51.06 52.61C51.31 52.64 51.93 52.72 52.18 52.75C52.81 52.8 53.44 52.84 54.07 52.84ZM35.89 52.85C38.25 54.84 40.87 56.38 43.6 57.47C34.62 61.35 23.82 60.13 15.83 53.4C4.56 43.92 3.11 27.1 12.59 15.83C19.32 7.83 29.75 4.78 39.26 7.07C36.75 8.61 34.44 10.57 32.45 12.93C22.38 24.91 23.92 42.78 35.89 52.85Z" fill="#FFFFFF" fill-opacity="1.000000" fill-rule="evenodd"/>
</svg>
