<svg width="65.000000" height="65.000000" viewBox="0 0 65 65" fill="none" xmlns="http://www.w3.org/2000/svg" xmlns:xlink="http://www.w3.org/1999/xlink">
	<desc>
			Created with Pixso.
	</desc>
	<defs>
		<clipPath id="clip253_36">
			<rect id="svg" width="65.000000" height="65.000000" fill="white" fill-opacity="0"/>
		</clipPath>
		<linearGradient x1="20.800003" y1="5.903948" x2="20.800003" y2="35.539402" id="paint_linear_253_39_0" gradientUnits="userSpaceOnUse">
			<stop stop-color="#7DE3C3"/>
			<stop offset="1.000000" stop-color="#0BA360"/>
		</linearGradient>
		<linearGradient x1="20.800003" y1="11.935297" x2="20.800003" y2="27.708853" id="paint_linear_253_40_0" gradientUnits="userSpaceOnUse">
			<stop stop-color="#D9F7EE"/>
			<stop offset="1.000000" stop-color="#2DF19B"/>
		</linearGradient>
	</defs>
	<g clip-path="url(#clip253_36)">
		<path id="path" d="M50.78 55.85L14.21 55.85C11.37 55.85 9.14 53.62 9.14 50.78L9.14 14.21C9.14 11.37 11.37 9.14 14.21 9.14L50.78 9.14C53.62 9.14 55.85 11.37 55.85 14.21L55.85 50.78C55.85 53.62 53.62 55.85 50.78 55.85ZM14.21 11.17C12.49 11.17 11.17 12.49 11.17 14.21L11.17 50.78C11.17 52.5 12.49 53.82 14.21 53.82L50.78 53.82C52.5 53.82 53.82 52.5 53.82 50.78L53.82 14.21C53.82 12.49 52.5 11.17 50.78 11.17L14.21 11.17Z" fill="url(#paint_linear_253_39_0)" fill-opacity="1.000000" fill-rule="nonzero"/>
		<path id="path" d="M14.21 55.85C11.37 55.85 9.14 53.62 9.14 50.78L9.14 14.21C9.14 11.37 11.37 9.14 14.21 9.14L50.78 9.14C53.62 9.14 55.85 11.37 55.85 14.21L55.85 50.78C55.85 53.62 53.62 55.85 50.78 55.85L14.21 55.85ZM11.17 14.21L11.17 50.78C11.17 52.5 12.49 53.82 14.21 53.82L50.78 53.82C52.5 53.82 53.82 52.5 53.82 50.78L53.82 14.21C53.82 12.49 52.5 11.17 50.78 11.17L14.21 11.17C12.49 11.17 11.17 12.49 11.17 14.21Z" stroke="#000000" stroke-opacity="0" stroke-width="1.562500"/>
		<path id="path" d="M45.29 33.21L40.32 33C38.79 33 37.07 33.51 35.75 34.73C34.02 36.35 33.82 39 34.53 40.72C35.24 42.45 37.27 43.46 39.3 43.06C40.92 42.75 41.74 41.23 41.64 39.91C41.53 38.79 40.82 38.18 40.01 38.18C39.2 38.18 38.89 38.59 38.79 39C38.69 39.4 38.89 39.71 39.2 39.91C39.71 40.32 38.79 41.53 37.67 40.82C37.07 40.42 36.56 39.5 36.66 38.39C36.86 36.86 38.08 35.44 40.32 35.44C42.65 35.44 44.28 36.86 44.78 39C45.5 41.64 44.07 44.89 40.82 46.61C36.86 48.75 30.16 48.54 26.5 44.68C24.37 42.45 23.66 39.5 23.86 36.76C23.96 35.85 24.07 34.93 24.27 34.02C24.37 33.71 24.17 33.41 23.76 33.31L23.66 33.31L17.46 33.31C17.06 33.31 16.65 33 16.65 32.5C16.65 32.39 16.65 32.39 16.65 32.29L18.58 23.96C18.68 23.46 19.19 23.05 19.7 23.05L26.2 23.05C26.5 23.05 26.81 22.85 26.91 22.54L27.92 17.77C28.03 17.26 28.53 16.96 28.94 16.96L37.88 16.96C38.28 16.96 38.59 17.26 38.59 17.67C38.59 17.77 38.59 17.77 38.59 17.87L37.67 22.64C37.67 22.85 37.78 23.05 37.98 23.05L47.63 23.05C48.03 23.05 48.34 23.35 48.34 23.86C48.34 23.96 48.34 23.96 48.34 24.07L46.21 32.39C46 33 45.7 33.31 45.29 33.21Z" fill="url(#paint_linear_253_40_0)" fill-opacity="1.000000" fill-rule="evenodd"/>
		<path id="path" d="M40.32 33C38.79 33 37.07 33.51 35.75 34.73C34.02 36.35 33.82 39 34.53 40.72C35.24 42.45 37.27 43.46 39.3 43.06C40.92 42.75 41.74 41.23 41.64 39.91C41.53 38.79 40.82 38.18 40.01 38.18C39.2 38.18 38.89 38.59 38.79 39C38.69 39.4 38.89 39.71 39.2 39.91C39.71 40.32 38.79 41.53 37.67 40.82C37.07 40.42 36.56 39.5 36.66 38.39C36.86 36.86 38.08 35.44 40.32 35.44C42.65 35.44 44.28 36.86 44.78 39C45.5 41.64 44.07 44.89 40.82 46.61C36.86 48.75 30.16 48.54 26.5 44.68C24.37 42.45 23.66 39.5 23.86 36.76C23.96 35.85 24.07 34.93 24.27 34.02C24.37 33.71 24.17 33.41 23.76 33.31L23.66 33.31L17.46 33.31C17.06 33.31 16.65 33 16.65 32.5C16.65 32.39 16.65 32.39 16.65 32.29L18.58 23.96C18.68 23.46 19.19 23.05 19.7 23.05L26.2 23.05C26.5 23.05 26.81 22.85 26.91 22.54L27.92 17.77C28.03 17.26 28.53 16.96 28.94 16.96L37.88 16.96C38.28 16.96 38.59 17.26 38.59 17.67C38.59 17.77 38.59 17.77 38.59 17.87L37.67 22.64C37.67 22.85 37.78 23.05 37.98 23.05L47.63 23.05C48.03 23.05 48.34 23.35 48.34 23.86C48.34 23.96 48.34 23.96 48.34 24.07L46.21 32.39C46 33 45.7 33.31 45.29 33.21L40.32 33Z" stroke="#000000" stroke-opacity="0" stroke-width="1.562500"/>
	</g>
</svg>
