<svg width="72.000000" height="72.000000" viewBox="0 0 72 72" fill="none" xmlns="http://www.w3.org/2000/svg" xmlns:xlink="http://www.w3.org/1999/xlink">
	<desc>
			Created with Pixso.
	</desc>
	<defs>
		<clipPath id="clip253_26">
			<rect id="youtube-svgrepo-com" width="54.000000" height="54.000000" transform="translate(9.000000 9.000000)" fill="white" fill-opacity="0"/>
		</clipPath>
		<clipPath id="clip253_11">
			<rect id="discord-svgrepo-com" width="72.000000" height="72.000000" fill="white" fill-opacity="0"/>
		</clipPath>
	</defs>
	<g clip-path="url(#clip253_11)">
		<g clip-path="url(#clip253_26)">
			<path id="path" d="M58.65 24.63C58.06 22.45 56.67 21.06 54.48 20.47C50.78 19.49 36 19.49 36 19.49C36 19.49 21.21 19.49 17.51 20.47C15.48 21.01 13.89 22.61 13.34 24.63C12.37 28.33 12.37 36 12.37 36C12.37 36 12.37 43.7 13.34 47.36C13.89 49.38 15.49 50.98 17.51 51.52C21.21 52.5 36 52.5 36 52.5C36 52.5 50.78 52.5 54.48 51.52C56.67 50.93 58.06 49.54 58.65 47.36C59.62 43.66 59.62 36 59.62 36C59.62 36 59.62 28.33 58.65 24.63Z" fill="#FF0000" fill-opacity="1.000000" fill-rule="nonzero"/>
			<path id="path" d="M31.25 43.12L43.54 36.04L31.25 28.91L31.25 43.12Z" fill="#FFFFFF" fill-opacity="1.000000" fill-rule="nonzero"/>
		</g>
	</g>
</svg>
